<?xml version="1.0" encoding="UTF-8"?>
<svg xmlns="http://www.w3.org/2000/svg" xmlns:xlink="http://www.w3.org/1999/xlink" width="150pt" height="150pt" viewBox="0 0 150 150" version="1.1">
<defs>
<clipPath id="clip1">
  <path d="M 2 2 L 148 2 L 148 148 L 2 148 Z M 2 2 "/>
</clipPath>
<clipPath id="clip2">
  <path d="M 2.65625 75.152344 C 2.65625 115.191406 35.117188 147.652344 75.152344 147.652344 C 115.199219 147.652344 147.65625 115.191406 147.65625 75.152344 C 147.65625 35.113281 115.199219 2.652344 75.152344 2.652344 C 35.117188 2.652344 2.65625 35.113281 2.65625 75.152344 "/>
</clipPath>
<clipPath id="clip3">
  <path d="M 13 48 L 139 48 L 139 101 L 13 101 Z M 13 48 "/>
</clipPath>
<clipPath id="clip4">
  <path d="M 2.65625 75.152344 C 2.65625 115.191406 35.117188 147.652344 75.152344 147.652344 C 115.199219 147.652344 147.65625 115.191406 147.65625 75.152344 C 147.65625 35.113281 115.199219 2.652344 75.152344 2.652344 C 35.117188 2.652344 2.65625 35.113281 2.65625 75.152344 "/>
</clipPath>
</defs>
<g id="surface1">
<g clip-path="url(#clip1)" clip-rule="nonzero">
<g clip-path="url(#clip2)" clip-rule="nonzero">
<path style=" stroke:none;fill-rule:nonzero;fill:rgb(89.019608%,14.509804%,14.901961%);fill-opacity:1;" d="M 147.65625 75.152344 C 147.65625 115.191406 115.199219 147.652344 75.152344 147.652344 C 35.117188 147.652344 2.65625 115.191406 2.65625 75.152344 C 2.65625 35.113281 35.117188 2.652344 75.152344 2.652344 C 115.199219 2.652344 147.65625 35.113281 147.65625 75.152344 "/>
</g>
</g>
<g clip-path="url(#clip3)" clip-rule="nonzero">
<g clip-path="url(#clip4)" clip-rule="nonzero">
<path style=" stroke:none;fill-rule:nonzero;fill:rgb(100%,100%,100%);fill-opacity:1;" d="M 54.746094 60.652344 C 56.386719 60.355469 57.605469 61.351562 57.484375 62.867188 C 57.359375 64.382812 55.925781 65.859375 54.289062 66.152344 C 52.660156 66.441406 51.433594 65.445312 51.5625 63.929688 C 51.6875 62.414062 53.109375 60.953125 54.746094 60.652344 M 37.117188 71.519531 C 38.535156 66.238281 40.253906 60.84375 41.953125 56.816406 C 38.527344 61.304688 34.859375 67.015625 31.554688 72.71875 C 33.476562 72.265625 35.347656 71.867188 37.117188 71.519531 M 66.28125 67.402344 C 67.5625 67.171875 70.429688 68.90625 69.058594 70.519531 C 67.632812 72.175781 66.023438 71.84375 63.492188 72.898438 C 62.0625 73.492188 60.960938 74.777344 59.394531 77.03125 C 57.398438 79.960938 56.484375 82.828125 56.320312 84.980469 C 56.308594 85.621094 56.257812 85.941406 55.917969 86.160156 C 52.578125 88.34375 51.550781 86.703125 51.636719 84.699219 C 51.65625 84.226562 51.820312 83.476562 52.117188 82.558594 C 49.546875 86.410156 47.273438 88.359375 45.785156 88.628906 C 43.789062 88.988281 42.664062 87.601562 42.878906 85.042969 C 42.976562 83.875 43.328125 82.507812 43.980469 80.78125 C 44.664062 79.027344 45.742188 76.632812 46.738281 74.667969 C 46.992188 74.15625 47.238281 73.667969 47.445312 73.226562 C 45.933594 73.519531 43.785156 73.964844 41.257812 74.539062 C 41.222656 74.625 41.195312 74.667969 41.164062 74.675781 C 40.089844 79.691406 40.003906 81.585938 39.425781 85.960938 C 39.179688 87.875 39.550781 89.933594 37.269531 90.25 C 34.992188 90.578125 34.234375 88.230469 34.21875 86.226562 C 34.191406 84.1875 34.566406 81.734375 36.011719 75.800781 C 33.640625 76.402344 31.140625 77.097656 28.660156 77.855469 C 28.628906 77.914062 28.601562 77.941406 28.601562 77.941406 C 24.488281 85.472656 20.429688 94.789062 19.757812 97.800781 C 19.222656 100.21875 18.128906 100.957031 16.523438 100.257812 C 14.921875 99.554688 13.988281 97.941406 14.570312 96.140625 C 15.628906 92.90625 18.84375 85.652344 21.710938 80.445312 C 21.691406 80.457031 21.710938 80.382812 21.777344 80.25 C 19.679688 81.066406 17.726562 81.941406 16.019531 82.882812 C 14.890625 83.488281 13.480469 82.929688 13.207031 81.671875 C 13.015625 80.78125 12.589844 79.019531 14.769531 78.0625 C 18.0625 76.625 21.625 75.402344 25.1875 74.375 C 32.746094 61.65625 42.140625 48.570312 44.84375 48.808594 C 46.011719 48.910156 45.828125 50.175781 46.859375 51.320312 C 47.878906 52.460938 48.027344 53.160156 46.808594 56.183594 C 44.308594 62.386719 44.507812 60.941406 42.109375 70.625 C 46.507812 69.894531 50.335938 69.472656 50.691406 69.417969 C 51.90625 69.246094 53.996094 70.074219 52.890625 72.441406 C 52.890625 72.441406 51.734375 74.480469 51.277344 75.351562 C 50.453125 76.796875 49.382812 78.964844 48.734375 80.433594 C 48.324219 81.296875 48.136719 81.957031 48.105469 82.441406 C 48.070312 82.757812 48.191406 82.933594 48.445312 82.886719 C 48.78125 82.828125 49.273438 82.464844 49.867188 81.847656 C 50.445312 81.171875 52.402344 79.570312 55.890625 73.6875 L 56.8125 71.78125 C 57.109375 71.210938 57.535156 70.210938 57.617188 69.753906 C 57.714844 69.070312 57.738281 68.890625 58.308594 68.53125 C 59.230469 67.945312 60.898438 67.457031 61.859375 68.085938 C 62.765625 68.683594 62.53125 69.765625 61.777344 71.082031 C 64.820312 67.65625 65.601562 67.515625 66.28125 67.402344 M 125.824219 77.308594 C 127.535156 75.203125 130.183594 70.378906 130.347656 69.058594 C 130.425781 68.453125 130.25 68.214844 129.773438 68.277344 C 129.1875 68.355469 127.867188 69.433594 126.609375 70.96875 C 124.773438 73.179688 122.292969 77.628906 122.101562 79.097656 C 122.019531 79.699219 122.265625 80.089844 122.6875 80.039062 C 123.367188 79.949219 124.542969 78.925781 125.824219 77.308594 M 136.078125 73.824219 C 136.820312 72.644531 138.394531 73.03125 137.972656 74.117188 C 137.609375 75.054688 136.921875 76.582031 135.171875 78.648438 C 133.019531 81.296875 131.035156 82.582031 129.242188 82.820312 C 127.800781 83.023438 126.773438 82.402344 126.523438 81.109375 L 126.441406 80.84375 C 126.4375 80.617188 126.320312 80.503906 126.195312 80.523438 C 126.066406 80.539062 125.96875 80.636719 125.726562 80.863281 C 123.910156 82.789062 122.519531 83.976562 120.839844 84.207031 C 118.328125 84.535156 116.867188 82.574219 117.222656 79.730469 C 116.554688 80.726562 115.859375 81.679688 115.222656 82.386719 C 113.261719 84.5625 111.652344 85.949219 110.160156 86.144531 C 108.148438 86.410156 107.09375 84.976562 107.433594 82.4375 C 107.585938 81.277344 108.015625 79.929688 108.753906 78.21875 C 109.519531 76.511719 110.703125 74.164062 111.800781 72.253906 C 112.675781 70.683594 113.523438 68.910156 113.652344 68.308594 C 113.753906 67.832031 113.804688 67.738281 114.179688 67.496094 C 114.644531 67.164062 115.570312 66.773438 116.132812 66.726562 C 117.550781 66.621094 119.4375 67.648438 118.191406 69.777344 L 117.71875 70.585938 C 117.652344 70.753906 116.800781 72.292969 116.308594 73.136719 C 115.402344 74.550781 114.246094 76.664062 113.515625 78.09375 C 113.066406 78.945312 112.847656 79.597656 112.789062 80.070312 C 112.738281 80.386719 112.847656 80.574219 113.09375 80.539062 C 113.441406 80.496094 113.953125 80.15625 114.574219 79.554688 C 115.214844 78.886719 115.601562 78.445312 117.023438 76.566406 L 117.539062 75.914062 C 117.949219 75.378906 121.1875 71.144531 122.160156 70.097656 C 124.773438 66.980469 127.722656 64.769531 129.617188 64.527344 C 130.863281 64.355469 131.867188 64.921875 132.347656 66.070312 C 132.691406 67.011719 132.757812 67.074219 133.589844 67.433594 C 134.921875 67.960938 135.359375 68.410156 135.257812 69.089844 C 135.207031 69.570312 135.027344 69.945312 134.179688 71.277344 C 133.585938 72.296875 132.929688 73.484375 132.457031 74.398438 C 131.46875 76.355469 130.925781 77.691406 131.886719 78.03125 C 132.25 78.15625 132.921875 77.808594 133.761719 76.921875 C 134.691406 75.9375 135.347656 74.964844 136.078125 73.824219 M 118.917969 64 C 120.554688 63.707031 121.980469 62.234375 122.109375 60.714844 C 122.226562 59.199219 121.003906 58.210938 119.378906 58.503906 C 117.742188 58.796875 116.308594 60.269531 116.1875 61.789062 C 116.058594 63.304688 117.289062 64.292969 118.917969 64 M 94.074219 56.8125 C 90.671875 61.277344 87.019531 66.964844 83.710938 72.644531 C 85.648438 72.199219 87.507812 71.820312 89.246094 71.488281 C 90.675781 66.222656 92.378906 60.835938 94.074219 56.8125 M 94.925781 70.535156 C 95.902344 70.394531 99.078125 70.015625 98.957031 71.347656 C 98.769531 73.496094 97.960938 73.464844 95.121094 74.070312 C 94.585938 74.191406 94.011719 74.316406 93.414062 74.441406 C 93.371094 74.585938 93.324219 74.671875 93.292969 74.675781 C 92.222656 79.695312 92.136719 81.59375 91.550781 85.960938 C 91.296875 87.875 91.671875 89.933594 89.394531 90.25 C 87.113281 90.582031 86.328125 88.230469 86.339844 86.230469 C 86.347656 82.683594 88.136719 75.738281 88.148438 75.695312 C 85.828125 76.285156 83.34375 76.957031 80.871094 77.730469 C 77.921875 82.734375 72.554688 94.789062 71.890625 97.804688 C 71.347656 100.21875 70.257812 100.957031 68.648438 100.25 C 67.046875 99.554688 66.148438 97.953125 66.699219 96.140625 C 68.195312 91.152344 73.847656 80.351562 73.9375 80.15625 C 71.839844 80.996094 69.886719 81.902344 68.199219 82.863281 C 67.15625 83.457031 65.824219 82.890625 65.539062 81.636719 C 65.355469 80.738281 64.9375 78.984375 66.976562 78.050781 C 70.25 76.5625 73.804688 75.3125 77.359375 74.289062 C 84.90625 61.59375 94.265625 48.570312 96.960938 48.8125 C 98.136719 48.910156 97.953125 50.175781 98.980469 51.320312 C 100.003906 52.457031 100.148438 53.160156 98.921875 56.183594 C 96.4375 62.394531 96.640625 60.945312 94.234375 70.640625 C 94.472656 70.609375 94.695312 70.570312 94.925781 70.535156 M 98.53125 88.128906 C 100.398438 87.9375 105.847656 86.746094 105.902344 80.761719 C 105.914062 78.445312 103.699219 77.222656 103.164062 75.609375 C 102.816406 74.613281 102.898438 72.554688 104.472656 71.933594 C 106.417969 71.167969 106.820312 72.449219 107.492188 73.402344 C 107.769531 73.796875 108.660156 73.703125 108.964844 73.382812 C 109.390625 72.941406 110.011719 72.28125 110.277344 71.160156 C 110.515625 70.132812 109.425781 68.410156 106.257812 68.515625 C 105.148438 68.539062 103.585938 68.730469 101.367188 70.84375 C 100.34375 71.816406 97.085938 76.273438 99.496094 80.09375 C 100.148438 81.132812 101.710938 82.402344 100.707031 83.378906 C 99.136719 84.890625 96.441406 82.546875 95.929688 81.839844 C 95.695312 81.515625 95.027344 81.132812 94.589844 81.777344 C 94.335938 82.148438 93.125 84.304688 93.3125 85.101562 C 93.855469 87.589844 97.066406 88.277344 98.53125 88.128906 "/>
</g>
</g>
</g>
</svg>
