<?xml version="1.0" encoding="UTF-8" standalone="no"?>
<!-- Created with Inkscape (http://www.inkscape.org/) -->

<svg
   xmlns:dc="http://purl.org/dc/elements/1.1/"
   xmlns:cc="http://creativecommons.org/ns#"
   xmlns:rdf="http://www.w3.org/1999/02/22-rdf-syntax-ns#"
   xmlns:svg="http://www.w3.org/2000/svg"
   xmlns="http://www.w3.org/2000/svg"
   xmlns:sodipodi="http://sodipodi.sourceforge.net/DTD/sodipodi-0.dtd"
   xmlns:inkscape="http://www.inkscape.org/namespaces/inkscape"
   width="286"
   height="49"
   id="svg3807"
   version="1.1"
   inkscape:version="0.47 r22583"
   sodipodi:docname="New document 4">
  <defs
     id="defs3809">
    <inkscape:perspective
       sodipodi:type="inkscape:persp3d"
       inkscape:vp_x="0 : 526.18109 : 1"
       inkscape:vp_y="0 : 1000 : 0"
       inkscape:vp_z="744.09448 : 526.18109 : 1"
       inkscape:persp3d-origin="372.04724 : 350.78739 : 1"
       id="perspective3815" />
    <inkscape:perspective
       id="perspective3800"
       inkscape:persp3d-origin="0.5 : 0.33333333 : 1"
       inkscape:vp_z="1 : 0.5 : 1"
       inkscape:vp_y="0 : 1000 : 0"
       inkscape:vp_x="0 : 0.5 : 1"
       sodipodi:type="inkscape:persp3d" />
  </defs>
  <sodipodi:namedview
     id="base"
     pagecolor="#ffffff"
     bordercolor="#666666"
     borderopacity="1.0"
     inkscape:pageopacity="0.0"
     inkscape:pageshadow="2"
     inkscape:zoom="3.959798"
     inkscape:cx="148.3225"
     inkscape:cy="23.940126"
     inkscape:document-units="px"
     inkscape:current-layer="layer1"
     showgrid="false"
     inkscape:window-width="1280"
     inkscape:window-height="750"
     inkscape:window-x="-8"
     inkscape:window-y="-8"
     inkscape:window-maximized="1" />
  <metadata
     id="metadata3812">
    <rdf:RDF>
      <cc:Work
         rdf:about="">
        <dc:format>image/svg+xml</dc:format>
        <dc:type
           rdf:resource="http://purl.org/dc/dcmitype/StillImage" />
        <dc:title></dc:title>
      </cc:Work>
    </rdf:RDF>
  </metadata>
  <g
     inkscape:label="Layer 1"
     inkscape:groupmode="layer"
     id="layer1"
     transform="translate(-314.02518,-342.36716)">
    <g
       transform="matrix(1.8742666,0,0,-1.8742666,147.76701,1630.7888)"
       id="g3788">
      <path
         id="path38"
         style="fill:#fcaf1e;fill-opacity:1;fill-rule:evenodd;stroke:none"
         d="m 237.598,681.641 c 0.063,1.64 -0.283,3.027 -1.103,4.036 -2.522,2.995 -8.544,0.977 -13.4,-4.477 -4.887,-5.455 -6.778,-12.296 -4.288,-15.291 2.522,-2.996 8.544,-1.009 13.431,4.445 0.757,0.883 1.482,1.797 2.081,2.712 l -8.039,0.819 11.634,1.514 -12.833,1.829 15.544,1.607 -12.674,1.293 9.647,1.513" />
      <path
         id="path40"
         style="fill:#00063f;fill-opacity:1;fill-rule:evenodd;stroke:none"
         d="m 207.299,681.641 c 0.915,0 1.766,-0.283 2.334,-0.283 0.157,0.031 0.283,0 0.283,-0.221 0,-0.063 -0.031,-0.095 -0.031,-0.158 0,-0.284 0.157,-0.914 0.157,-1.702 0,-0.316 -0.094,-0.41 -0.315,-0.41 -0.252,0 -0.315,0.157 -0.347,0.347 -0.063,0.473 -0.126,0.693 -0.378,0.946 -0.41,0.441 -1.009,0.63 -1.86,0.63 -1.45,0 -2.207,-0.851 -2.144,-1.891 0.063,-1.199 1.009,-1.829 2.68,-2.807 2.301,-1.419 2.995,-2.333 2.995,-3.878 0,-1.671 -1.324,-3.531 -4.603,-3.531 -0.82,0 -1.64,0.126 -2.365,0.442 -0.284,0.126 -0.315,0.189 -0.315,0.725 -0.032,0.662 -0.032,1.545 0,1.86 0.063,0.189 0.094,0.315 0.347,0.315 0.189,0 0.284,-0.094 0.315,-0.347 0,-0.157 0.031,-0.472 0.095,-0.756 0.346,-1.262 1.545,-1.419 2.364,-1.419 1.64,0 2.586,1.009 2.586,2.081 0,1.356 -0.789,2.081 -2.996,3.342 -2.207,1.229 -2.648,2.522 -2.617,3.626 0.063,1.86 1.482,3.089 3.815,3.089 z m -63.845,-6.494 c 0,0.756 0.032,3.814 0.032,6.084 0,0.064 -0.032,0.127 -0.126,0.127 l -2.649,0 c -0.315,0 -0.41,-0.063 -0.41,-0.316 0,-0.189 0.064,-0.283 0.253,-0.315 0.882,-0.063 1.009,-0.473 1.04,-1.545 0.032,-1.576 0.032,-2.774 0.032,-4.035 0,-1.64 -0.032,-3.784 -0.095,-6.054 0,-0.094 0.063,-0.158 0.126,-0.158 l 1.703,0 c 0.094,0 0.126,0.064 0.126,0.158 -0.032,2.238 -0.032,4.193 -0.032,6.054 z m 50.509,0.346 c 0.315,-0.504 0.63,-0.946 0.883,-1.356 0,-1.481 -0.032,-3.215 -0.063,-5.044 0,-0.094 0.031,-0.158 0.126,-0.158 l 1.671,0 c 0.094,0 0.157,0.064 0.157,0.158 -0.031,1.829 -0.063,3.5 -0.063,5.044 1.419,2.271 3.059,4.762 4.572,7.063 0.063,0.095 0.031,0.158 -0.063,0.158 l -2.396,0 c -0.284,0 -0.41,-0.063 -0.41,-0.316 0,-0.189 0.094,-0.283 0.283,-0.315 0.505,-0.095 0.631,-0.41 0.347,-0.883 -0.882,-1.482 -1.86,-3.026 -2.806,-4.54 -0.252,0.41 -0.504,0.788 -0.756,1.198 -1.041,1.577 -1.892,2.932 -3.027,4.729 -0.063,0.095 -0.095,0.127 -0.252,0.127 l -1.955,0 c -0.095,0 -0.126,-0.063 -0.063,-0.158 1.356,-1.986 2.9,-4.319 3.815,-5.707 z m -6.085,-6.4 c 0.063,-0.094 0.094,-0.158 0.189,-0.158 l 1.86,0 c 0.095,0 0.126,0.064 0.095,0.158 -1.009,2.175 -2.081,4.635 -2.712,6.148 -1.229,2.838 -1.765,4.319 -2.364,5.99 -0.032,0.064 -0.095,0.127 -0.189,0.127 l -2.05,0 c -0.284,0 -0.41,-0.063 -0.41,-0.316 0,-0.189 0.095,-0.283 0.284,-0.315 0.41,-0.063 0.725,-0.221 0.725,-0.757 0,-0.283 -0.126,-0.63 -0.283,-1.009 -0.568,-1.45 -1.041,-2.553 -1.545,-3.72 -0.631,-1.513 -1.703,-3.973 -2.712,-6.148 -0.031,-0.094 0,-0.158 0.095,-0.158 l 1.166,0 c 0.095,0 0.158,0.064 0.19,0.158 0.441,1.135 0.851,2.113 1.229,3.09 1.009,0 1.829,0 2.585,0 0.757,0 1.545,0 2.586,0 0.41,-1.041 0.851,-2.113 1.261,-3.09 z m -6.054,4.099 c 0.189,0.441 0.379,0.882 0.536,1.324 0.473,1.135 0.915,2.207 1.608,3.878 0.726,-1.671 1.167,-2.743 1.64,-3.878 0.189,-0.442 0.378,-0.883 0.567,-1.324 -0.756,0 -1.45,0 -2.144,0 -0.725,0 -1.418,0 -2.207,0 z m -6.274,8.166 c -0.284,0 -0.41,-0.063 -0.41,-0.316 0,-0.189 0.126,-0.283 0.284,-0.315 0.536,-0.095 0.662,-0.536 0.505,-1.072 -0.505,-1.387 -0.915,-2.617 -1.356,-3.878 -0.378,-1.072 -0.757,-2.112 -1.293,-3.657 -0.599,1.608 -0.977,2.553 -1.387,3.657 -0.662,1.734 -1.198,3.122 -1.986,5.234 -0.095,0.22 -0.158,0.347 -0.379,0.347 -0.22,0 -0.283,-0.127 -0.378,-0.347 -0.757,-2.112 -1.261,-3.5 -1.892,-5.234 -0.41,-1.072 -0.788,-2.112 -1.387,-3.657 -0.567,1.608 -0.914,2.553 -1.324,3.657 -0.631,1.734 -1.198,3.342 -1.955,5.454 -0.032,0.064 -0.063,0.127 -0.157,0.127 l -1.798,0 c -0.094,0 -0.126,-0.032 -0.094,-0.127 0.851,-2.112 1.797,-4.634 2.364,-6.148 1.041,-2.869 1.545,-4.161 2.176,-5.927 0.094,-0.284 0.158,-0.441 0.378,-0.441 0.252,0 0.347,0.252 0.41,0.441 0.536,1.482 1.797,4.761 2.239,5.927 0.315,0.82 0.662,1.671 1.072,2.649 0.441,-1.072 0.63,-1.545 1.04,-2.649 1.103,-2.869 1.639,-4.161 2.302,-5.927 0.126,-0.284 0.189,-0.441 0.41,-0.441 0.252,0 0.315,0.252 0.409,0.441 0.505,1.482 1.671,4.761 2.113,5.927 0.504,1.356 1.608,4.225 2.364,6.148 0.063,0.064 0,0.127 -0.094,0.127 l -2.176,0 z m -62.331,0 c -1.86,0 -2.806,0.031 -5.045,0.063 -0.063,0 -0.095,-0.063 -0.126,-0.126 l -0.252,-1.072 c 0,-0.095 0.031,-0.158 0.157,-0.158 1.325,0.063 2.901,0.126 4.351,0.158 0.032,-1.577 0.032,-3.847 0.032,-5.076 0,-1.64 -0.032,-3.784 -0.095,-6.054 0,-0.094 0.032,-0.158 0.126,-0.158 l 1.703,0 c 0.063,0 0.126,0.064 0.126,0.158 -0.031,2.238 -0.031,4.193 -0.031,6.054 0,0.63 0,3.026 0.031,5.076 1.387,-0.032 2.775,-0.095 4.225,-0.158 0.063,0 0.126,0.031 0.126,0.126 l 0.252,1.072 c 0.032,0.095 -0.032,0.158 -0.095,0.158 -2.269,-0.032 -3.625,-0.063 -5.485,-0.063 z m 22.669,-12.265 c 0.031,-0.094 0.094,-0.158 0.157,-0.158 l 1.86,0 c 0.095,0 0.158,0.064 0.095,0.158 -1.009,2.175 -2.081,4.635 -2.711,6.148 -1.23,2.838 -1.766,4.319 -2.365,5.99 -0.032,0.064 -0.095,0.127 -0.189,0.127 l -2.05,0 c -0.283,0 -0.409,-0.063 -0.409,-0.316 0,-0.189 0.094,-0.283 0.283,-0.315 0.41,-0.063 0.725,-0.221 0.725,-0.757 0,-0.283 -0.126,-0.63 -0.283,-1.009 -0.568,-1.45 -1.041,-2.553 -1.545,-3.72 -0.631,-1.513 -1.703,-3.973 -2.712,-6.148 -0.031,-0.094 0,-0.158 0.095,-0.158 l 1.198,0 c 0.063,0 0.126,0.064 0.158,0.158 0.441,1.135 0.851,2.113 1.229,3.09 1.041,0 1.829,0 2.585,0 0.757,0 1.545,0 2.586,0 0.41,-1.041 0.851,-2.113 1.293,-3.09 z m -6.086,4.099 c 0.19,0.441 0.379,0.882 0.536,1.324 0.474,1.135 0.915,2.207 1.609,3.878 0.725,-1.671 1.197,-2.743 1.671,-3.878 0.157,-0.442 0.346,-0.883 0.535,-1.324 -0.756,0 -1.418,0 -2.144,0 -0.725,0 -1.418,0 -2.207,0 z m 21.03,7.22 c 0.315,0.031 0.757,0.063 1.198,0.063 1.829,0 2.995,-0.851 2.995,-2.838 0,-1.545 -0.819,-2.774 -2.711,-2.774 -0.599,0 -1.198,0.094 -1.514,0.189 0,1.04 0.032,2.837 0.032,5.36 z m 2.112,-6.464 c 1.388,-2.081 2.176,-3.184 3.153,-4.067 0.82,-0.725 1.797,-1.04 2.932,-1.04 0.883,0 1.797,0.126 1.797,0.41 0,0.189 -0.157,0.22 -0.63,0.284 -0.946,0.157 -1.577,0.441 -2.68,1.418 -0.883,0.788 -1.892,2.081 -2.869,3.531 1.23,0.663 2.238,1.892 2.238,3.5 0,2.68 -2.585,3.374 -4.571,3.374 l -4.257,0 c -0.283,0 -0.409,-0.063 -0.409,-0.316 0,-0.189 0.094,-0.283 0.283,-0.315 0.852,-0.063 0.978,-0.473 1.009,-1.545 0.032,-1.576 0.032,-2.774 0.032,-4.035 0,-1.64 0,-3.784 -0.095,-6.054 0,-0.094 0.063,-0.158 0.158,-0.158 l 1.671,0 c 0.094,0 0.126,0.064 0.126,0.158 0,1.797 -0.032,3.437 -0.032,4.95 0.568,-0.063 1.135,-0.126 1.861,-0.095 0.094,0 0.189,0 0.283,0 z M 101.9,670.039 c -0.032,1.734 -0.032,3.31 -0.032,4.792 0.82,-0.031 2.27,-0.158 3.405,-0.22 0.095,0 0.127,0.031 0.158,0.126 l 0.252,1.071 c 0,0.095 -0.031,0.158 -0.126,0.158 -1.324,-0.063 -2.427,-0.094 -3.689,-0.094 0,1.04 0,2.837 0.032,4.445 1.04,-0.031 2.207,-0.157 3.689,-0.252 0.094,0 0.126,0.031 0.157,0.126 l 0.252,1.072 c 0,0.095 -0.031,0.158 -0.126,0.158 -1.671,-0.032 -3.026,-0.063 -4.508,-0.063 l -2.27,0 c -0.284,0 -0.41,-0.063 -0.41,-0.316 0,-0.189 0.095,-0.283 0.284,-0.315 0.882,-0.063 1.009,-0.473 1.04,-1.545 0.032,-1.576 0.032,-2.774 0.032,-4.035 0,-1.64 -0.032,-3.784 -0.095,-6.054 0,-0.094 0.032,-0.158 0.126,-0.158 l 1.703,0 c 1.387,0 2.774,-0.031 4.256,-0.031 0.095,0 0.126,0.031 0.158,0.126 l 0.22,1.072 c 0.032,0.094 0,0.158 -0.094,0.158 -1.703,-0.126 -3.248,-0.19 -4.414,-0.221 z m -7.346,11.192 c 0,0.064 -0.063,0.127 -0.158,0.127 l -2.775,0 c -0.283,0 -0.409,-0.063 -0.409,-0.316 0,-0.189 0.094,-0.283 0.284,-0.315 0.914,-0.095 1.103,-0.378 1.135,-1.545 0.031,-1.576 0.031,-2.774 0.031,-4.035 0,-2.334 0,-4.005 -0.031,-5.612 -0.032,-2.428 -0.158,-3.942 -0.757,-5.108 -1.135,-2.176 -2.523,-2.176 -2.523,-2.585 0,-0.19 0.158,-0.316 0.316,-0.284 0.599,0.126 4.855,1.702 4.855,7.503 0,2.05 -0.031,3.784 -0.031,6.086 0,0.756 0.031,3.814 0.063,6.084" />
    </g>
  </g>
</svg>
